<svg width="40" height="125" viewBox="0 0 40 125" fill="none" xmlns="http://www.w3.org/2000/svg">
<path d="M1.02258 42.01C1.02258 39.4387 3.10703 37.3542 5.67832 37.3542H34.3216C36.8929 37.3542 38.9774 39.4387 38.9774 42.01V120.344C38.9774 122.916 36.8929 125 34.3216 125H5.67832C3.10703 125 1.02258 122.916 1.02258 120.344V42.01Z" fill="url(#paint0_linear_67_478)"/>
<path d="M1.19255 4.65574C1.19255 2.2039 3.18016 0.21629 5.63199 0.21629H34.368C36.8198 0.21629 38.8074 2.2039 38.8074 4.65574V120.288C38.8074 122.74 36.8198 124.727 34.368 124.727H5.63199C3.18015 124.727 1.19255 122.74 1.19255 120.288V4.65574Z" stroke="white" stroke-opacity="0.82" stroke-width="0.43258"/>
<g clip-path="url(#clip0_67_478)">
<g filter="url(#filter0_f_67_478)">
<ellipse cx="19.7409" cy="1.37761" rx="8.61577" ry="0.935109" fill="#05CAAD"/>
</g>
</g>
<g filter="url(#filter1_d_67_478)">
<path d="M14.218 76.0511C13.2793 76.0511 12.458 75.9125 11.754 75.6351C11.05 75.3471 10.5006 74.9471 10.106 74.4351C9.71131 73.9125 9.51398 73.3045 9.51398 72.6111C9.51398 71.9178 9.70598 71.3311 10.09 70.8511C10.4846 70.3605 11.034 69.9925 11.738 69.7471C12.442 69.4911 13.2686 69.3631 14.218 69.3631C15.178 69.3631 16.01 69.4911 16.714 69.7471C17.4286 69.9925 17.978 70.3605 18.362 70.8511C18.7566 71.3311 18.954 71.9178 18.954 72.6111C18.954 73.3045 18.7566 73.9125 18.362 74.4351C17.9673 74.9471 17.4126 75.3471 16.698 75.6351C15.994 75.9125 15.1673 76.0511 14.218 76.0511ZM14.218 74.1471C14.8686 74.1471 15.3806 74.0031 15.754 73.7151C16.138 73.4271 16.33 73.0325 16.33 72.5311C16.33 72.0298 16.138 71.6405 15.754 71.3631C15.3806 71.0751 14.8686 70.9311 14.218 70.9311C13.578 70.9311 13.0713 71.0751 12.698 71.3631C12.3246 71.6405 12.138 72.0298 12.138 72.5311C12.138 73.0325 12.3246 73.4271 12.698 73.7151C13.0713 74.0031 13.578 74.1471 14.218 74.1471ZM14.218 70.6751C13.354 70.6751 12.5966 70.5578 11.946 70.3231C11.306 70.0885 10.8046 69.7471 10.442 69.2991C10.09 68.8405 9.91398 68.2965 9.91398 67.6671C9.91398 67.0058 10.0953 66.4405 10.458 65.9711C10.8206 65.4911 11.3273 65.1231 11.978 64.8671C12.6286 64.6005 13.3753 64.4671 14.218 64.4671C15.082 64.4671 15.834 64.6005 16.474 64.8671C17.1246 65.1231 17.6313 65.4911 17.994 65.9711C18.3673 66.4405 18.554 67.0058 18.554 67.6671C18.554 68.2965 18.3726 68.8405 18.01 69.2991C17.658 69.7471 17.1566 70.0885 16.506 70.3231C15.8553 70.5578 15.0926 70.6751 14.218 70.6751ZM14.218 69.1551C14.762 69.1551 15.1886 69.0325 15.498 68.7871C15.818 68.5418 15.978 68.2058 15.978 67.7791C15.978 67.3311 15.8126 66.9845 15.482 66.7391C15.162 66.4938 14.7406 66.3711 14.218 66.3711C13.706 66.3711 13.29 66.4938 12.97 66.7391C12.65 66.9845 12.49 67.3311 12.49 67.7791C12.49 68.2058 12.6446 68.5418 12.954 68.7871C13.2633 69.0325 13.6846 69.1551 14.218 69.1551ZM24.9405 76.0511C24.0231 76.0511 23.2018 75.8271 22.4765 75.3791C21.7511 74.9205 21.1805 74.2591 20.7645 73.3951C20.3485 72.5311 20.1405 71.4858 20.1405 70.2591C20.1405 69.0325 20.3485 67.9871 20.7645 67.1231C21.1805 66.2591 21.7511 65.6031 22.4765 65.1551C23.2018 64.6965 24.0231 64.4671 24.9405 64.4671C25.8685 64.4671 26.6898 64.6965 27.4045 65.1551C28.1298 65.6031 28.7005 66.2591 29.1165 67.1231C29.5325 67.9871 29.7405 69.0325 29.7405 70.2591C29.7405 71.4858 29.5325 72.5311 29.1165 73.3951C28.7005 74.2591 28.1298 74.9205 27.4045 75.3791C26.6898 75.8271 25.8685 76.0511 24.9405 76.0511ZM24.9405 73.8591C25.3778 73.8591 25.7565 73.7365 26.0765 73.4911C26.4071 73.2458 26.6631 72.8565 26.8445 72.3231C27.0365 71.7898 27.1325 71.1018 27.1325 70.2591C27.1325 69.4165 27.0365 68.7285 26.8445 68.1951C26.6631 67.6618 26.4071 67.2725 26.0765 67.0271C25.7565 66.7818 25.3778 66.6591 24.9405 66.6591C24.5138 66.6591 24.1351 66.7818 23.8045 67.0271C23.4845 67.2725 23.2285 67.6618 23.0365 68.1951C22.8551 68.7285 22.7645 69.4165 22.7645 70.2591C22.7645 71.1018 22.8551 71.7898 23.0365 72.3231C23.2285 72.8565 23.4845 73.2458 23.8045 73.4911C24.1351 73.7365 24.5138 73.8591 24.9405 73.8591Z" fill="white"/>
</g>
<defs>
<filter id="filter0_f_67_478" x="7.23191" y="-3.45071" width="25.018" height="9.65667" filterUnits="userSpaceOnUse" color-interpolation-filters="sRGB">
<feFlood flood-opacity="0" result="BackgroundImageFix"/>
<feBlend mode="normal" in="SourceGraphic" in2="BackgroundImageFix" result="shape"/>
<feGaussianBlur stdDeviation="1.94661" result="effect1_foregroundBlur_67_478"/>
</filter>
<filter id="filter1_d_67_478" x="3.51398" y="62.4672" width="28.2265" height="19.584" filterUnits="userSpaceOnUse" color-interpolation-filters="sRGB">
<feFlood flood-opacity="0" result="BackgroundImageFix"/>
<feColorMatrix in="SourceAlpha" type="matrix" values="0 0 0 0 0 0 0 0 0 0 0 0 0 0 0 0 0 0 127 0" result="hardAlpha"/>
<feOffset dx="-2" dy="2"/>
<feGaussianBlur stdDeviation="2"/>
<feComposite in2="hardAlpha" operator="out"/>
<feColorMatrix type="matrix" values="0 0 0 0 0 0 0 0 0 0 0 0 0 0 0 0 0 0 0.25 0"/>
<feBlend mode="normal" in2="BackgroundImageFix" result="effect1_dropShadow_67_478"/>
<feBlend mode="normal" in="SourceGraphic" in2="effect1_dropShadow_67_478" result="shape"/>
</filter>
<linearGradient id="paint0_linear_67_478" x1="15.2556" y1="37.3543" x2="89.8677" y2="92.7322" gradientUnits="userSpaceOnUse">
<stop stop-color="#63FE67"/>
<stop offset="0.448057" stop-color="#0BC02C"/>
<stop offset="1" stop-color="#00E7B9"/>
</linearGradient>
<clipPath id="clip0_67_478">
<path d="M7.23419 4.56455C7.23419 2.35893 9.0222 0.570923 11.2278 0.570923H28.7724C30.9781 0.570923 32.7661 2.35893 32.7661 4.56455C32.7661 6.77017 30.9781 8.55817 28.7724 8.55817H11.2278C9.0222 8.55817 7.23419 6.77017 7.23419 4.56455Z" fill="white"/>
</clipPath>
</defs>
</svg>
