<svg width="24" height="24" viewBox="0 0 24 24" fill="none" xmlns="http://www.w3.org/2000/svg">
<path d="M6 15C5.73478 15 5.48043 14.8946 5.29289 14.7071C5.10536 14.5196 5 14.2652 5 14V10C5 9.73478 5.10536 9.48043 5.29289 9.29289C5.48043 9.10536 5.73478 9 6 9H12V15H6Z" fill="#63FE67"/>
<path fill-rule="evenodd" clip-rule="evenodd" d="M18 6H5C4.20435 6 3.44129 6.31607 2.87868 6.87868C2.31607 7.44129 2 8.20435 2 9V15C2 15.7956 2.31607 16.5587 2.87868 17.1213C3.44129 17.6839 4.20435 18 5 18H18C18.7956 18 19.5587 17.6839 20.1213 17.1213C20.6839 16.5587 21 15.7956 21 15C21.2652 15 21.5196 14.8946 21.7071 14.7071C21.8946 14.5196 22 14.2652 22 14V10C22 9.73478 21.8946 9.48043 21.7071 9.29289C21.5196 9.10536 21.2652 9 21 9C21 8.20435 20.6839 7.44129 20.1213 6.87868C19.5587 6.31607 18.7956 6 18 6ZM18 8H5C4.73478 8 4.48043 8.10536 4.29289 8.29289C4.10536 8.48043 4 8.73478 4 9V15C4 15.2652 4.10536 15.5196 4.29289 15.7071C4.48043 15.8946 4.73478 16 5 16H18C18.2652 16 18.5196 15.8946 18.7071 15.7071C18.8946 15.5196 19 15.2652 19 15V9C19 8.73478 18.8946 8.48043 18.7071 8.29289C18.5196 8.10536 18.2652 8 18 8Z" fill="white"/>
<path fill-rule="evenodd" clip-rule="evenodd" d="M12.8489 9.01167C12.8784 9.02621 12.904 9.05356 12.9222 9.0899C12.9403 9.12624 12.95 9.16976 12.95 9.21438V11.5715H13.85C13.8782 11.5715 13.9057 11.5828 13.9296 11.6042C13.9535 11.6255 13.9726 11.656 13.9849 11.6922C13.9972 11.7283 14.0021 11.7687 13.9991 11.8087C13.9961 11.8486 13.9853 11.8866 13.9679 11.9182L12.3179 14.9182C12.2986 14.9532 12.2722 14.9788 12.2423 14.9913C12.2123 15.0039 12.1804 15.0028 12.1509 14.9882C12.1215 14.9737 12.0959 14.9463 12.0778 14.91C12.0597 14.8738 12.05 14.8303 12.05 14.7858V12.4286H11.15C11.1218 12.4286 11.0943 12.4173 11.0704 12.396C11.0465 12.3746 11.0274 12.3442 11.0151 12.308C11.0028 12.2718 10.9979 12.2314 11.0009 12.1915C11.0039 12.1515 11.0147 12.1135 11.0321 12.0819L12.6821 9.08195C12.7014 9.04693 12.7278 9.02135 12.7576 9.00875C12.7875 8.99616 12.8194 8.99718 12.8489 9.01167Z" fill="white"/>
</svg>
