<svg width="24" height="25" viewBox="0 0 24 25" fill="none" xmlns="http://www.w3.org/2000/svg">
<path d="M10.1833 7.825L8.55833 6.2C9.53333 5.65833 10.6167 5.33333 11.8083 5.33333C15.3833 5.33333 18.3083 8.25833 18.3083 11.8333V15.95L16.1417 13.7833V11.8333C16.1417 9.45 14.1917 7.5 11.8083 7.5C11.2667 7.5 10.725 7.60833 10.1833 7.825ZM20.5833 5.11667L19.0667 3.6L16.7917 5.875L18.3083 7.39167L20.5833 5.11667ZM19.9333 11.2917V13.4583H23.1833V11.2917H19.9333ZM3.68333 11.2917H0.433333V13.4583H3.68333V11.2917ZM1.40833 1.75833L22.75 23.1L21.3417 24.5083L20.5833 23.75H3.14167C3.14167 22.5583 4.11667 21.5833 5.30833 21.5833H18.4167L17.3333 20.5H5.30833V11.8333C5.30833 10.8583 5.525 9.88333 5.95833 9.125L0 3.16667L1.40833 1.75833ZM7.475 18.3333H15.1667L7.58333 10.75C7.58333 11.075 7.475 11.5083 7.475 11.8333V18.3333ZM12.8917 1H10.725V4.25H12.8917V1Z" fill="#959595"/>
</svg>
