<svg width="24" height="24" viewBox="0 0 24 24" fill="none" xmlns="http://www.w3.org/2000/svg">
<path d="M4.875 6.39167L2.5675 4.095L4.095 2.5675L6.39167 4.875L4.875 6.39167ZM12.4583 0V3.25H10.2917V0H12.4583ZM20.1825 4.095L17.875 6.39167L16.3583 4.875L18.655 2.5675L20.1825 4.095ZM3.25 10.2917V12.4583H0V10.2917H3.25ZM19.5 10.2917H22.75V12.4583H19.5V10.2917ZM4.875 20.5833H17.875C18.4496 20.5833 19.0007 20.8116 19.4071 21.2179C19.8134 21.6243 20.0417 22.1754 20.0417 22.75H2.70833C2.70833 22.1754 2.93661 21.6243 3.34294 21.2179C3.74926 20.8116 4.30036 20.5833 4.875 20.5833ZM11.375 4.33333C13.0989 4.33333 14.7522 5.01815 15.9712 6.23714C17.1902 7.45613 17.875 9.10943 17.875 10.8333V19.5H4.875V10.8333C4.875 9.10943 5.55982 7.45613 6.77881 6.23714C7.99779 5.01815 9.65109 4.33333 11.375 4.33333ZM11.375 6.5C10.2257 6.5 9.12353 6.95655 8.31087 7.7692C7.49821 8.58186 7.04167 9.68406 7.04167 10.8333V17.3333H15.7083V10.8333C15.7083 9.68406 15.2518 8.58186 14.4391 7.7692C13.6265 6.95655 12.5243 6.5 11.375 6.5Z" fill="#FFAB23"/>
</svg>
