<svg width="34" height="19" viewBox="0 0 34 19" fill="none" xmlns="http://www.w3.org/2000/svg">
<path d="M0 10.4615C0 4.68379 4.68379 0 10.4615 0H34V7.53846C34 13.3162 29.3162 18 23.5385 18H0V10.4615Z" fill="#63FE67"/>
<g filter="url(#filter0_d_67_322)">
<path d="M6.70077 7.39H10.9508L10.5715 9.32538H6.32154L6.70077 7.39ZM6.16462 10.9992H10.9638L10.5454 13H3.20923L5.04 3.84615H12.2062L11.8008 5.84692H7.18462L6.16462 10.9992ZM16.4676 13.1831C15.5348 13.1831 14.7196 13.0131 14.0222 12.6731C13.3335 12.3331 12.8017 11.8623 12.4268 11.2608C12.052 10.6505 11.8645 9.94872 11.8645 9.15538C11.8645 8.36205 12.004 7.62974 12.283 6.95846C12.562 6.28718 12.9543 5.70744 13.4599 5.21923C13.9655 4.72231 14.5671 4.33872 15.2645 4.06846C15.9707 3.7982 16.7509 3.66308 17.6053 3.66308C18.4509 3.66308 19.2007 3.81128 19.8545 4.10769C20.5084 4.4041 20.9966 4.83128 21.3191 5.38923L19.4491 6.88C19.2399 6.53128 18.9653 6.26538 18.6253 6.08231C18.294 5.89923 17.8973 5.80769 17.4353 5.80769C16.9907 5.80769 16.5853 5.88615 16.2191 6.04308C15.8617 6.2 15.5522 6.42231 15.2907 6.71C15.0291 6.99769 14.8286 7.33769 14.6891 7.73C14.5496 8.11359 14.4799 8.53205 14.4799 8.98538C14.4799 9.39513 14.5671 9.75692 14.7414 10.0708C14.9245 10.3759 15.1817 10.6156 15.513 10.79C15.853 10.9556 16.254 11.0385 16.7161 11.0385C17.1258 11.0385 17.5181 10.9556 17.893 10.79C18.2766 10.6244 18.6296 10.3541 18.9522 9.97923L20.4822 11.4831C19.9679 12.1021 19.375 12.5423 18.7037 12.8038C18.0325 13.0567 17.2871 13.1831 16.4676 13.1831ZM25.3551 13.1831C24.4136 13.1831 23.6028 13.0131 22.9228 12.6731C22.2428 12.3244 21.7197 11.8492 21.3536 11.2477C20.9874 10.6462 20.8043 9.94872 20.8043 9.15538C20.8043 8.35333 20.9438 7.62103 21.2228 6.95846C21.5018 6.28718 21.8941 5.70744 22.3997 5.21923C22.9054 4.72231 23.5069 4.33872 24.2043 4.06846C24.9105 3.7982 25.682 3.66308 26.5189 3.66308C27.4605 3.66308 28.2713 3.83744 28.9513 4.18615C29.6313 4.52615 30.1543 4.99692 30.5205 5.59846C30.8866 6.2 31.0697 6.89744 31.0697 7.69077C31.0697 8.49282 30.9302 9.22949 30.6513 9.90077C30.3723 10.5633 29.98 11.1431 29.4743 11.64C28.9687 12.1282 28.3628 12.5074 27.6566 12.7777C26.9592 13.0479 26.192 13.1831 25.3551 13.1831ZM25.5774 11.0385C26.0307 11.0385 26.4318 10.9556 26.7805 10.79C27.1379 10.6244 27.4387 10.3933 27.6828 10.0969C27.9356 9.79179 28.1274 9.44744 28.2582 9.06385C28.3889 8.68026 28.4543 8.27487 28.4543 7.84769C28.4543 7.43795 28.3672 7.08051 28.1928 6.77538C28.0272 6.47026 27.7831 6.23487 27.4605 6.06923C27.1466 5.89487 26.7587 5.80769 26.2966 5.80769C25.852 5.80769 25.451 5.89051 25.0936 6.05615C24.7361 6.22179 24.431 6.45718 24.1782 6.76231C23.9341 7.05872 23.7466 7.39872 23.6159 7.78231C23.4851 8.1659 23.4197 8.57128 23.4197 8.99846C23.4197 9.39949 23.5025 9.75692 23.6682 10.0708C23.8425 10.3759 24.0866 10.6156 24.4005 10.79C24.7231 10.9556 25.1154 11.0385 25.5774 11.0385Z" fill="white"/>
</g>
<defs>
<filter id="filter0_d_67_322" x="0.593844" y="3.66309" width="33.0912" height="14.7508" filterUnits="userSpaceOnUse" color-interpolation-filters="sRGB">
<feFlood flood-opacity="0" result="BackgroundImageFix"/>
<feColorMatrix in="SourceAlpha" type="matrix" values="0 0 0 0 0 0 0 0 0 0 0 0 0 0 0 0 0 0 127 0" result="hardAlpha"/>
<feOffset dy="2.61538"/>
<feGaussianBlur stdDeviation="1.30769"/>
<feComposite in2="hardAlpha" operator="out"/>
<feColorMatrix type="matrix" values="0 0 0 0 0 0 0 0 0 0 0 0 0 0 0 0 0 0 0.25 0"/>
<feBlend mode="normal" in2="BackgroundImageFix" result="effect1_dropShadow_67_322"/>
<feBlend mode="normal" in="SourceGraphic" in2="effect1_dropShadow_67_322" result="shape"/>
</filter>
</defs>
</svg>
