<svg width="112" height="56" viewBox="0 0 112 56" fill="none" xmlns="http://www.w3.org/2000/svg">
<path d="M0.0102539 32.1923C0.0102539 14.6891 14.1994 0.5 31.7026 0.5H111.15V18.8077C111.15 36.3109 96.9608 50.5 79.4577 50.5H0.0102539V32.1923Z" fill="#63FE67"/>
<g filter="url(#filter0_d_35_197)">
<path d="M23.2214 21.733H36.0964L34.9476 27.5961H22.0726L23.2214 21.733ZM21.5972 32.6669H36.136L34.8683 38.728H12.6441L18.1903 10.9973H39.8995L38.6714 17.0584H24.6872L21.5972 32.6669ZM52.8092 39.2826C49.9833 39.2826 47.5139 38.7676 45.4011 37.7376C43.3147 36.7076 41.7036 35.2815 40.568 33.4592C39.4324 31.6105 38.8645 29.4844 38.8645 27.0811C38.8645 24.6778 39.2871 22.4593 40.1322 20.4257C40.9774 18.3921 42.1658 16.6358 43.6976 15.1569C45.2294 13.6515 47.0517 12.4894 49.1645 11.6707C51.3038 10.852 53.6675 10.4426 56.2557 10.4426C58.8175 10.4426 61.0888 10.8916 63.0695 11.7896C65.0503 12.6875 66.5293 13.9816 67.5065 15.6719L61.8415 20.188C61.2076 19.1316 60.3757 18.3261 59.3457 17.7715C58.3421 17.2169 57.1404 16.9396 55.7407 16.9396C54.3938 16.9396 53.1657 17.1773 52.0565 17.6526C50.9736 18.128 50.0361 18.8015 49.2438 19.673C48.4515 20.5446 47.844 21.5746 47.4215 22.763C46.9989 23.9251 46.7876 25.1928 46.7876 26.5661C46.7876 27.8074 47.0517 28.9034 47.5799 29.8542C48.1345 30.7785 48.9136 31.5048 49.9172 32.033C50.9472 32.5348 52.1621 32.7857 53.5618 32.7857C54.8031 32.7857 55.9916 32.5348 57.1272 32.033C58.2893 31.5312 59.3589 30.7125 60.3361 29.5769L64.9711 34.1326C63.4129 36.0078 61.617 37.3415 59.5834 38.1338C57.5498 38.8997 55.2917 39.2826 52.8092 39.2826ZM79.7331 39.2826C76.8808 39.2826 74.4246 38.7676 72.3646 37.7376C70.3046 36.6812 68.72 35.2419 67.6108 33.4196C66.5015 31.5973 65.9469 29.4844 65.9469 27.0811C65.9469 24.6514 66.3695 22.4329 67.2146 20.4257C68.0597 18.3921 69.2482 16.6358 70.78 15.1569C72.3118 13.6515 74.1341 12.4894 76.2469 11.6707C78.3861 10.852 80.7235 10.4426 83.2588 10.4426C86.1111 10.4426 88.5673 10.9708 90.6273 12.0273C92.6873 13.0573 94.2719 14.4834 95.3811 16.3057C96.4904 18.128 97.045 20.2408 97.045 22.6442C97.045 25.0739 96.6224 27.3056 95.7773 29.3392C94.9322 31.3464 93.7437 33.1026 92.2119 34.608C90.6801 36.087 88.8446 37.2358 86.7054 38.0546C84.5926 38.8733 82.2685 39.2826 79.7331 39.2826ZM80.4065 32.7857C81.7799 32.7857 82.9947 32.5348 84.0511 32.033C85.134 31.5312 86.0451 30.8314 86.7846 29.9334C87.5505 29.0091 88.1315 27.9658 88.5277 26.8038C88.9238 25.6417 89.1219 24.4137 89.1219 23.1196C89.1219 21.8783 88.8578 20.7955 88.3296 19.8711C87.8278 18.9467 87.0883 18.2337 86.1111 17.7319C85.1604 17.2037 83.9851 16.9396 82.5854 16.9396C81.2385 16.9396 80.0236 17.1905 78.9408 17.6923C77.8579 18.1941 76.9336 18.9071 76.1677 19.8315C75.4282 20.7294 74.8604 21.7594 74.4642 22.9215C74.0681 24.0835 73.87 25.3116 73.87 26.6057C73.87 27.8206 74.1209 28.9034 74.6227 29.8542C75.1509 30.7785 75.8904 31.5048 76.8411 32.033C77.8183 32.5348 79.0068 32.7857 80.4065 32.7857Z" fill="white"/>
</g>
<defs>
<filter id="filter0_d_35_197" x="4.72097" y="10.4426" width="100.247" height="44.6861" filterUnits="userSpaceOnUse" color-interpolation-filters="sRGB">
<feFlood flood-opacity="0" result="BackgroundImageFix"/>
<feColorMatrix in="SourceAlpha" type="matrix" values="0 0 0 0 0 0 0 0 0 0 0 0 0 0 0 0 0 0 127 0" result="hardAlpha"/>
<feOffset dy="7.92308"/>
<feGaussianBlur stdDeviation="3.96154"/>
<feComposite in2="hardAlpha" operator="out"/>
<feColorMatrix type="matrix" values="0 0 0 0 0 0 0 0 0 0 0 0 0 0 0 0 0 0 0.25 0"/>
<feBlend mode="normal" in2="BackgroundImageFix" result="effect1_dropShadow_35_197"/>
<feBlend mode="normal" in="SourceGraphic" in2="effect1_dropShadow_35_197" result="shape"/>
</filter>
</defs>
</svg>
