<svg width="194" height="45" viewBox="0 0 194 45" fill="none" xmlns="http://www.w3.org/2000/svg">
<path d="M0 25.618C0 11.4695 11.4695 0 25.6179 0H114.639V14.7987C114.639 28.9471 103.17 40.4167 89.0211 40.4167H0V25.618Z" fill="#63FE67"/>
<g filter="url(#filter0_d_67_353)">
<path d="M21.4402 17.4467H31.8475L30.9188 22.186H20.5115L21.4402 17.4467ZM20.1272 26.2849H31.8795L30.8548 31.1843H12.8902L17.3733 8.76862H34.9216L33.9289 13.6681H22.625L20.1272 26.2849ZM45.3569 31.6326C43.0726 31.6326 41.0766 31.2163 39.3687 30.3838C37.6822 29.5512 36.38 28.3984 35.462 26.9253C34.544 25.431 34.085 23.7124 34.085 21.7697C34.085 19.827 34.4266 18.0338 35.1097 16.39C35.7929 14.7461 36.7536 13.3265 37.9918 12.131C39.23 10.9141 40.703 9.9748 42.4109 9.313C44.1401 8.6512 46.0507 8.3203 48.1429 8.3203C50.2137 8.3203 52.0496 8.68323 53.6507 9.40907C55.2519 10.1349 56.4474 11.181 57.2372 12.5473L52.658 16.1978C52.1457 15.3439 51.4732 14.6928 50.6406 14.2445C49.8294 13.7961 48.858 13.572 47.7266 13.572C46.6378 13.572 45.6451 13.7641 44.7485 14.1484C43.8732 14.5327 43.1153 15.077 42.4749 15.7815C41.8344 16.486 41.3434 17.3186 41.0019 18.2793C40.6603 19.2186 40.4895 20.2433 40.4895 21.3534C40.4895 22.3568 40.703 23.2428 41.13 24.0113C41.5783 24.7585 42.208 25.3456 43.0193 25.7725C43.8519 26.1782 44.8339 26.381 45.9653 26.381C46.9687 26.381 47.9294 26.1782 48.8474 25.7725C49.7867 25.3669 50.6513 24.7051 51.4412 23.7871L55.1878 27.4697C53.9283 28.9855 52.4766 30.0635 50.8328 30.704C49.1889 31.3231 47.3637 31.6326 45.3569 31.6326ZM67.1204 31.6326C64.8148 31.6326 62.8294 31.2163 61.1642 30.3838C59.4991 29.5298 58.2182 28.3664 57.3215 26.8933C56.4249 25.4203 55.9766 23.7124 55.9766 21.7697C55.9766 19.8057 56.3182 18.0124 57.0013 16.39C57.6845 14.7461 58.6451 13.3265 59.8833 12.131C61.1215 10.9141 62.5946 9.9748 64.3024 9.313C66.0317 8.6512 67.921 8.3203 69.9704 8.3203C72.276 8.3203 74.2614 8.74727 75.9266 9.6012C77.5918 10.4338 78.8727 11.5866 79.7693 13.0596C80.6659 14.5327 81.1142 16.2405 81.1142 18.1832C81.1142 20.1473 80.7726 21.9512 80.0895 23.595C79.4064 25.2175 78.4457 26.6371 77.2075 27.854C75.9693 29.0495 74.4856 29.9781 72.7564 30.6399C71.0485 31.3017 69.1699 31.6326 67.1204 31.6326ZM67.6648 26.381C68.7749 26.381 69.7569 26.1782 70.6109 25.7725C71.4861 25.3669 72.2227 24.8012 72.8204 24.0753C73.4395 23.3282 73.9092 22.4849 74.2294 21.5456C74.5496 20.6062 74.7097 19.6136 74.7097 18.5675C74.7097 17.5641 74.4963 16.6888 74.0693 15.9416C73.6637 15.1945 73.0659 14.6181 72.276 14.2124C71.5075 13.7855 70.5575 13.572 69.426 13.572C68.3373 13.572 67.3552 13.7748 66.48 14.1804C65.6047 14.586 64.8575 15.1624 64.2384 15.9096C63.6406 16.6355 63.1817 17.468 62.8614 18.4074C62.5412 19.3467 62.3811 20.3394 62.3811 21.3855C62.3811 22.3675 62.5839 23.2428 62.9895 24.0113C63.4165 24.7585 64.0142 25.3456 64.7828 25.7725C65.5727 26.1782 66.5333 26.381 67.6648 26.381Z" fill="white"/>
</g>
<path d="M89.7251 21.9148C89.7251 9.8116 99.5367 0 111.64 0H194V18.5019C194 30.6051 184.188 40.4167 172.085 40.4167H89.7251V21.9148Z" fill="#959595"/>
<g filter="url(#filter1_d_67_353)">
<path d="M106.343 30.0415L109.328 15.1668H103.439L104.315 10.866H121.491L120.615 15.1668H114.752L111.766 30.0415H106.343ZM128.668 30.425C126.696 30.425 124.997 30.0689 123.573 29.3567C122.149 28.6262 121.053 27.6309 120.286 26.3708C119.519 25.1107 119.135 23.6497 119.135 21.9878C119.135 20.3077 119.427 18.7736 120.012 17.3857C120.596 15.9795 121.418 14.7651 122.477 13.7424C123.537 12.7014 124.797 11.8979 126.258 11.3317C127.737 10.7656 129.353 10.4825 131.106 10.4825C133.079 10.4825 134.777 10.8478 136.201 11.5783C137.626 12.2905 138.722 13.2767 139.489 14.5368C140.256 15.7969 140.639 17.2579 140.639 18.9197C140.639 20.5999 140.347 22.143 139.763 23.5492C139.178 24.9372 138.356 26.1516 137.297 27.1926C136.238 28.2153 134.969 29.0097 133.489 29.5758C132.029 30.1419 130.421 30.425 128.668 30.425ZM129.134 25.9325C130.084 25.9325 130.924 25.759 131.654 25.412C132.403 25.065 133.033 24.5811 133.544 23.9601C134.074 23.321 134.476 22.5996 134.75 21.7961C135.024 20.9925 135.16 20.1433 135.16 19.2485C135.16 18.3901 134.978 17.6414 134.613 17.0022C134.266 16.363 133.754 15.8699 133.079 15.5229C132.421 15.1577 131.608 14.9751 130.641 14.9751C129.709 14.9751 128.869 15.1486 128.12 15.4955C127.372 15.8425 126.732 16.3356 126.203 16.9748C125.691 17.5957 125.299 18.3079 125.025 19.1115C124.751 19.915 124.614 20.7642 124.614 21.6591C124.614 22.4992 124.787 23.2479 125.134 23.9054C125.5 24.5445 126.011 25.0468 126.669 25.412C127.344 25.759 128.166 25.9325 129.134 25.9325ZM149.726 30.425C147.808 30.425 146.201 30.0598 144.904 29.3293C143.626 28.5805 142.722 27.5396 142.192 26.2064C141.663 24.855 141.572 23.2844 141.919 21.4947L144.055 10.866H149.479L147.37 21.4125C147.224 22.1796 147.178 22.8461 147.233 23.4123C147.288 23.9784 147.443 24.4532 147.699 24.8367C147.973 25.2202 148.329 25.5033 148.767 25.6859C149.223 25.8503 149.762 25.9325 150.383 25.9325C151.132 25.9325 151.78 25.7864 152.328 25.4942C152.894 25.1837 153.36 24.6998 153.725 24.0423C154.109 23.3666 154.401 22.49 154.602 21.4125L156.711 10.866H162.053L159.889 21.7413C159.323 24.5902 158.19 26.7543 156.492 28.2335C154.794 29.6945 152.538 30.425 149.726 30.425ZM160.824 30.0415L164.659 10.866H172.849C175.315 10.866 177.214 11.4048 178.547 12.4823C179.899 13.5597 180.574 15.0572 180.574 16.9748C180.574 18.5819 180.182 19.9881 179.397 21.1934C178.63 22.3804 177.534 23.3027 176.109 23.9601C174.685 24.6176 173.005 24.9463 171.069 24.9463H164.851L167.727 22.6179L166.248 30.0415H160.824ZM172.849 30.0415L168.932 23.0562H174.548L178.52 30.0415H172.849ZM167.59 23.2479L165.7 20.7551H171.315C172.521 20.7551 173.452 20.472 174.11 19.9059C174.767 19.3398 175.096 18.5362 175.096 17.4953C175.096 16.6917 174.831 16.0982 174.301 15.7147C173.772 15.3312 173.032 15.1394 172.082 15.1394H166.85L169.754 12.5644L167.59 23.2479Z" fill="white"/>
</g>
<defs>
<filter id="filter0_d_67_353" x="6.48565" y="8.32031" width="81.033" height="36.1212" filterUnits="userSpaceOnUse" color-interpolation-filters="sRGB">
<feFlood flood-opacity="0" result="BackgroundImageFix"/>
<feColorMatrix in="SourceAlpha" type="matrix" values="0 0 0 0 0 0 0 0 0 0 0 0 0 0 0 0 0 0 127 0" result="hardAlpha"/>
<feOffset dy="6.40449"/>
<feGaussianBlur stdDeviation="3.20224"/>
<feComposite in2="hardAlpha" operator="out"/>
<feColorMatrix type="matrix" values="0 0 0 0 0 0 0 0 0 0 0 0 0 0 0 0 0 0 0.25 0"/>
<feBlend mode="normal" in2="BackgroundImageFix" result="effect1_dropShadow_67_353"/>
<feBlend mode="normal" in="SourceGraphic" in2="effect1_dropShadow_67_353" result="shape"/>
</filter>
<filter id="filter1_d_67_353" x="97.9601" y="10.4824" width="88.0931" height="30.9" filterUnits="userSpaceOnUse" color-interpolation-filters="sRGB">
<feFlood flood-opacity="0" result="BackgroundImageFix"/>
<feColorMatrix in="SourceAlpha" type="matrix" values="0 0 0 0 0 0 0 0 0 0 0 0 0 0 0 0 0 0 127 0" result="hardAlpha"/>
<feOffset dy="5.4787"/>
<feGaussianBlur stdDeviation="2.73935"/>
<feComposite in2="hardAlpha" operator="out"/>
<feColorMatrix type="matrix" values="0 0 0 0 0 0 0 0 0 0 0 0 0 0 0 0 0 0 0.25 0"/>
<feBlend mode="normal" in2="BackgroundImageFix" result="effect1_dropShadow_67_353"/>
<feBlend mode="normal" in="SourceGraphic" in2="effect1_dropShadow_67_353" result="shape"/>
</filter>
</defs>
</svg>
