<svg width="197" height="173" viewBox="0 0 197 173" fill="none" xmlns="http://www.w3.org/2000/svg">
<path d="M28.7431 138.054C31.0403 140.351 32.2979 142.114 34.8555 143.531C35.8653 144.091 36.8352 144.734 37.6434 145.558C41.5876 149.581 44.4252 151.264 48.4584 154.49C51.1155 156.616 53.575 159.875 55.7454 162.546C59.1292 166.711 63.8361 168.439 68.6595 170.522C74.2977 172.956 83.7255 173.071 89.9537 171.938C100.376 170.044 106.933 158.477 117.563 158.134C128.52 157.78 139.457 157.405 150.476 157.405C162.806 157.405 172.412 155.807 177.478 142.993C181.847 131.943 182.903 121.492 182.903 109.635C182.903 103.893 183.632 98.056 183.632 92.227C183.632 87.183 191.014 82.0322 193.834 78.1388C198.936 71.093 195.965 58.7593 192.7 51.339C189.553 44.1862 187.005 40.8398 179.867 38.2224C163.419 32.1916 146.409 27.5283 130.032 21.3004C123.572 18.8437 117.339 13.141 112.543 8.34578C109.952 5.75453 105.221 0.734934 101.289 0.734934C92.737 0.734934 84.0448 0.0062356 75.4202 0.0062356C69.4761 0.0062356 61.1532 -0.229139 55.7049 2.19233C44.0781 7.3598 42.329 17.7992 39.6736 29.559C38.0507 36.746 34.0378 42.893 29.5123 48.4242C24.7015 54.304 14.7507 54.9541 8.90631 59.7595C3.88027 63.892 0 68.3284 0 74.9002C0 82.7885 0.192822 89.815 1.78126 97.5303C3.69166 106.809 7.96154 115.537 14.2096 122.711C18.7897 127.969 23.8049 133.116 28.7431 138.054Z" fill="#63FE67"/>
</svg>
