<svg width="28" height="28" viewBox="0 0 28 28" fill="none" xmlns="http://www.w3.org/2000/svg">
<path d="M7.5 20.5H7.52112M14.0163 20.5H14.0244M20.5244 20.5H20.5325M20.5244 14H20.5325M7.51625 14H7.52438M14.0163 14H14.0244M20.5325 7.5H20.5406M7.52438 7.5H7.5325M14.0244 7.5H14.0325M5.875 1H4.25C3.38805 1 2.5614 1.34241 1.9519 1.9519C1.34241 2.5614 1 3.38805 1 4.25V23.75C1 24.612 1.34241 25.4386 1.9519 26.0481C2.5614 26.6576 3.38805 27 4.25 27H5.875M22.125 1H23.75C24.612 1 25.4386 1.34241 26.0481 1.9519C26.6576 2.5614 27 3.38805 27 4.25V23.75C27 24.612 26.6576 25.4386 26.0481 26.0481C25.4386 26.6576 24.612 27 23.75 27H22.125" stroke="#959595" stroke-width="2" stroke-linecap="round" stroke-linejoin="round"/>
</svg>
