<svg width="30" height="30" viewBox="0 0 30 30" fill="none" xmlns="http://www.w3.org/2000/svg">
<path d="M8.5 21.5H8.52112M15.0163 21.5H15.0244M21.5244 21.5H21.5325M21.5244 15H21.5325M8.51625 15H8.52438M15.0163 15H15.0244M21.5325 8.5H21.5406M8.52438 8.5H8.5325M15.0244 8.5H15.0325M6.875 2H5.25C4.38805 2 3.5614 2.34241 2.9519 2.9519C2.34241 3.5614 2 4.38805 2 5.25V24.75C2 25.612 2.34241 26.4386 2.9519 27.0481C3.5614 27.6576 4.38805 28 5.25 28H6.875M23.125 2H24.75C25.612 2 26.4386 2.34241 27.0481 2.9519C27.6576 3.5614 28 4.38805 28 5.25V24.75C28 25.612 27.6576 26.4386 27.0481 27.0481C26.4386 27.6576 25.612 28 24.75 28H23.125" stroke="#0C8CE9" stroke-width="3" stroke-linecap="round" stroke-linejoin="round"/>
</svg>
