<svg width="18" height="18" viewBox="0 0 18 18" fill="none" xmlns="http://www.w3.org/2000/svg">
<path d="M5.10001 12.9H5.11269M9.00976 12.9H9.01464M12.9146 12.9H12.9195M12.9146 8.99995H12.9195M5.10976 8.99995H5.11464M9.00976 8.99995H9.01464M12.9195 5.09995H12.9244M5.11464 5.09995H5.11951M9.01464 5.09995H9.01951M4.12501 1.19995H3.15001C2.63284 1.19995 2.13685 1.4054 1.77115 1.77109C1.40546 2.13679 1.20001 2.63278 1.20001 3.14995V14.85C1.20001 15.3671 1.40546 15.8631 1.77115 16.2288C2.13685 16.5945 2.63284 16.8 3.15001 16.8H4.12501M13.875 1.19995H14.85C15.3672 1.19995 15.8632 1.4054 16.2289 1.77109C16.5946 2.13679 16.8 2.63278 16.8 3.14995V14.85C16.8 15.3671 16.5946 15.8631 16.2289 16.2288C15.8632 16.5945 15.3672 16.8 14.85 16.8H13.875" stroke="#0C8CE9" stroke-width="2" stroke-linecap="round" stroke-linejoin="round"/>
</svg>
