<svg width="26" height="26" viewBox="0 0 26 26" fill="none" xmlns="http://www.w3.org/2000/svg">
<path d="M1.5 2.88889C1.5 2.12183 2.12183 1.5 2.88889 1.5H8.66667C9.43373 1.5 10.0556 2.12183 10.0556 2.88889V10.0556H2.88889C2.12183 10.0556 1.5 9.43373 1.5 8.66667V2.88889ZM1.5 17.3333C1.5 16.5663 2.12183 15.9444 2.88889 15.9444H10.0556V23.1111C10.0556 23.8782 9.43373 24.5 8.66667 24.5H2.88889C2.12183 24.5 1.5 23.8782 1.5 23.1111V17.3333ZM15.9444 2.88889C15.9444 2.12183 16.5663 1.5 17.3333 1.5H23.1111C23.8782 1.5 24.5 2.12183 24.5 2.88889V8.66667C24.5 9.43373 23.8782 10.0556 23.1111 10.0556H15.9444V2.88889ZM15.9444 23.1111V15.9444H23.1111C23.8782 15.9444 24.5 16.5663 24.5 17.3333V23.1111C24.5 23.8782 23.8782 24.5 23.1111 24.5H17.3333C16.5663 24.5 15.9444 23.8782 15.9444 23.1111Z" stroke="#63FE67" stroke-width="3"/>
</svg>
