<svg width="26" height="26" viewBox="0 0 26 26" fill="none" xmlns="http://www.w3.org/2000/svg">
<path d="M1 2.88889C1 1.84568 1.84568 1 2.88889 1H8.66667C9.70987 1 10.5556 1.84568 10.5556 2.88889V10.5556H2.88889C1.84568 10.5556 1 9.70987 1 8.66667V2.88889ZM1 17.3333C1 16.2901 1.84568 15.4444 2.88889 15.4444H10.5556V23.1111C10.5556 24.1543 9.70987 25 8.66667 25H2.88889C1.84568 25 1 24.1543 1 23.1111V17.3333ZM15.4444 2.88889C15.4444 1.84568 16.2901 1 17.3333 1H23.1111C24.1543 1 25 1.84568 25 2.88889V8.66667C25 9.70987 24.1543 10.5556 23.1111 10.5556H15.4444V2.88889ZM15.4444 23.1111V15.4444H23.1111C24.1543 15.4444 25 16.2901 25 17.3333V23.1111C25 24.1543 24.1543 25 23.1111 25H17.3333C16.2901 25 15.4444 24.1543 15.4444 23.1111Z" stroke="#959595" stroke-width="2"/>
</svg>
