<svg width="26" height="26" viewBox="0 0 26 26" fill="none" xmlns="http://www.w3.org/2000/svg">
<path d="M0.900253 13.0714C0.900225 13.0714 0.900798 13.0709 0.902057 13.07C0.900911 13.071 0.900281 13.0714 0.900253 13.0714ZM1.84989 12.6054L24.1361 1.3296L12.4481 24.0487L12.4481 21.6911C12.4481 16.8859 8.67326 12.9282 3.87343 12.7011L1.84989 12.6054ZM11.9178 25.11C11.9178 25.11 11.9182 25.1095 11.9189 25.1085L11.9178 25.11ZM12.6139 25.1686C12.6176 25.1734 12.6193 25.1762 12.6192 25.1764C12.6191 25.1766 12.6173 25.1742 12.6139 25.1686ZM0.8497 12.4091C0.845175 12.4063 0.843217 12.4047 0.84337 12.4047C0.843523 12.4046 0.845782 12.406 0.8497 12.4091Z" stroke="#959595" stroke-width="2"/>
</svg>
