<svg width="134" height="134" viewBox="0 0 134 134" fill="none" xmlns="http://www.w3.org/2000/svg">
<g filter="url(#filter0_d_22_68)">
<path d="M56.585 54.1895C58.4639 54.1895 60.0865 54.5596 61.453 55.2997C62.8384 56.0399 63.9107 57.1407 64.6699 58.602C65.448 60.0444 65.837 61.8473 65.837 64.0109C65.837 66.3263 65.3816 68.3 64.4706 69.9322C63.5786 71.5454 62.3355 72.779 60.7413 73.633C59.1661 74.487 57.3252 74.9141 55.2186 74.9141C54.1178 74.9141 53.055 74.7812 52.0302 74.5155C51.0053 74.2688 50.1228 73.9177 49.3827 73.4622L51.4323 69.4198C52.0017 69.8183 52.59 70.0935 53.1973 70.2453C53.8236 70.3782 54.4594 70.4446 55.1047 70.4446C56.6419 70.4446 57.8661 69.9796 58.777 69.0497C59.688 68.1197 60.1435 66.7628 60.1435 64.9788C60.1435 64.6562 60.1435 64.324 60.1435 63.9824C60.1435 63.6218 60.115 63.2612 60.0581 62.9006L61.453 64.0678C61.1114 64.77 60.6654 65.3584 60.115 65.8328C59.5646 66.3073 58.9194 66.6679 58.1792 66.9146C57.439 67.1613 56.5945 67.2847 55.6456 67.2847C54.393 67.2847 53.2448 67.0285 52.201 66.5161C51.1761 65.9847 50.3506 65.254 49.7243 64.324C49.098 63.3751 48.7848 62.2649 48.7848 60.9933C48.7848 59.6079 49.1359 58.4122 49.8381 57.4064C50.5403 56.3815 51.4798 55.5939 52.6565 55.0435C53.8331 54.4742 55.1426 54.1895 56.585 54.1895ZM56.9551 58.2035C56.4237 58.2035 55.9587 58.3078 55.5602 58.5166C55.1616 58.7254 54.839 59.0195 54.5923 59.3991C54.3645 59.7597 54.2506 60.2057 54.2506 60.7371C54.2506 61.4962 54.4974 62.1035 54.9908 62.559C55.5032 63.0145 56.1675 63.2423 56.9836 63.2423C57.5339 63.2423 58.0179 63.1379 58.4354 62.9291C58.8529 62.7203 59.1756 62.4262 59.4033 62.0466C59.6311 61.667 59.7449 61.221 59.7449 60.7086C59.7449 60.2152 59.6311 59.7882 59.4033 59.4276C59.1756 59.048 58.8529 58.7538 58.4354 58.5451C58.0179 58.3173 57.5244 58.2035 56.9551 58.2035ZM67.4762 74.5155V70.9855L74.9347 64.0109C75.4661 63.5174 75.8552 63.0809 76.1019 62.7014C76.3676 62.3218 76.5384 61.9802 76.6143 61.6765C76.7092 61.3539 76.7567 61.0597 76.7567 60.794C76.7567 60.1488 76.5384 59.6458 76.1019 59.2852C75.6844 58.9246 75.0486 58.7443 74.1946 58.7443C73.4734 58.7443 72.7996 58.9057 72.1733 59.2283C71.5471 59.5509 71.0346 60.0349 70.6361 60.6802L66.4513 58.3458C67.1915 57.0932 68.2638 56.0873 69.6682 55.3282C71.0726 54.5691 72.7522 54.1895 74.707 54.1895C76.2442 54.1895 77.5917 54.4362 78.7494 54.9297C79.9071 55.4231 80.8086 56.1253 81.4539 57.0363C82.1181 57.9472 82.4502 59.0195 82.4502 60.2531C82.4502 60.8984 82.3648 61.5437 82.194 62.1889C82.0232 62.8152 81.6911 63.489 81.1976 64.2102C80.7232 64.9124 80.0115 65.7 79.0626 66.573L73.1413 72.0388L72.2018 70.0461H82.9911V74.5155H67.4762Z" fill="white"/>
</g>
<g filter="url(#filter1_d_22_68)">
<path d="M67.3079 5C52.8658 5 38.92 10.2697 28.0869 19.8204C17.2537 29.3711 10.2777 42.5465 8.46766 56.8747C6.65759 71.2028 10.1378 85.6992 18.2555 97.6439C26.3731 109.589 38.5703 118.161 52.5586 121.753C66.547 125.344 81.3652 123.708 94.2331 117.152C107.101 110.595 117.135 99.5685 122.451 86.1406C127.767 72.7127 128.002 57.8063 123.11 44.2181C118.218 30.6298 108.535 19.2935 95.8797 12.336L87.9162 26.8216C97.0444 31.84 104.028 40.0166 107.557 49.8175C111.085 59.6185 110.916 70.3701 107.081 80.0554C103.247 89.7406 96.0099 97.6939 86.7285 102.423C77.4471 107.152 66.7591 108.332 56.6696 105.742C46.5801 103.151 37.7825 96.968 31.9274 88.3525C26.0723 79.737 23.5621 69.2811 24.8676 58.9465C26.1732 48.6118 31.2049 39.1087 39.0186 32.22C46.8323 25.3312 56.8911 21.5303 67.3079 21.5303V5Z" fill="#63FE67"/>
</g>
<defs>
<filter id="filter0_d_22_68" x="36.9232" y="42.3279" width="57.9295" height="44.4478" filterUnits="userSpaceOnUse" color-interpolation-filters="sRGB">
<feFlood flood-opacity="0" result="BackgroundImageFix"/>
<feColorMatrix in="SourceAlpha" type="matrix" values="0 0 0 0 0 0 0 0 0 0 0 0 0 0 0 0 0 0 127 0" result="hardAlpha"/>
<feOffset/>
<feGaussianBlur stdDeviation="5.93079"/>
<feComposite in2="hardAlpha" operator="out"/>
<feColorMatrix type="matrix" values="0 0 0 0 0.027451 0 0 0 0 0.670588 0 0 0 0 0.0980392 0 0 0 0.5 0"/>
<feBlend mode="normal" in2="BackgroundImageFix" result="effect1_dropShadow_22_68"/>
<feBlend mode="normal" in="SourceGraphic" in2="effect1_dropShadow_22_68" result="shape"/>
</filter>
<filter id="filter1_d_22_68" x="0.882929" y="0.255367" width="132.85" height="132.85" filterUnits="userSpaceOnUse" color-interpolation-filters="sRGB">
<feFlood flood-opacity="0" result="BackgroundImageFix"/>
<feColorMatrix in="SourceAlpha" type="matrix" values="0 0 0 0 0 0 0 0 0 0 0 0 0 0 0 0 0 0 127 0" result="hardAlpha"/>
<feOffset dy="2.37232"/>
<feGaussianBlur stdDeviation="3.55847"/>
<feComposite in2="hardAlpha" operator="out"/>
<feColorMatrix type="matrix" values="0 0 0 0 0 0 0 0 0 0.596078 0 0 0 0 0 0 0 0 0.3 0"/>
<feBlend mode="normal" in2="BackgroundImageFix" result="effect1_dropShadow_22_68"/>
<feBlend mode="normal" in="SourceGraphic" in2="effect1_dropShadow_22_68" result="shape"/>
</filter>
</defs>
</svg>
