<svg width="26" height="26" viewBox="0 0 26 26" fill="none" xmlns="http://www.w3.org/2000/svg">
<g clip-path="url(#clip0_67_306)">
<path d="M13 16.2499C14.7949 16.2499 16.25 14.7948 16.25 12.9999C16.25 11.205 14.7949 9.74992 13 9.74992C11.2051 9.74992 9.74998 11.205 9.74998 12.9999C9.74998 14.7948 11.2051 16.2499 13 16.2499Z" stroke="#63FE67" stroke-width="3" stroke-linecap="round" stroke-linejoin="round"/>
<path d="M21.0166 16.2499C20.8724 16.5767 20.8294 16.9391 20.8931 17.2906C20.9569 17.642 21.1244 17.9663 21.3741 18.2216L21.4391 18.2866C21.6406 18.4878 21.8004 18.7268 21.9094 18.9898C22.0185 19.2528 22.0746 19.5348 22.0746 19.8195C22.0746 20.1042 22.0185 20.3862 21.9094 20.6492C21.8004 20.9122 21.6406 21.1512 21.4391 21.3524C21.2379 21.5539 20.999 21.7137 20.7359 21.8227C20.4729 21.9318 20.191 21.9879 19.9062 21.9879C19.6215 21.9879 19.3396 21.9318 19.0765 21.8227C18.8135 21.7137 18.5745 21.5539 18.3733 21.3524L18.3083 21.2874C18.053 21.0377 17.7287 20.8701 17.3773 20.8064C17.0259 20.7427 16.6634 20.7857 16.3366 20.9299C16.0162 21.0672 15.743 21.2953 15.5505 21.5859C15.358 21.8766 15.2547 22.2172 15.2533 22.5658V22.7499C15.2533 23.3246 15.025 23.8757 14.6187 24.282C14.2124 24.6883 13.6613 24.9166 13.0866 24.9166C12.512 24.9166 11.9609 24.6883 11.5546 24.282C11.1483 23.8757 10.92 23.3246 10.92 22.7499V22.6524C10.9116 22.2938 10.7955 21.9461 10.5869 21.6543C10.3782 21.3626 10.0866 21.1404 9.74998 21.0166C9.42323 20.8724 9.06077 20.8294 8.70934 20.8931C8.35791 20.9568 8.03363 21.1243 7.77831 21.3741L7.71331 21.4391C7.51209 21.6405 7.27313 21.8003 7.0101 21.9094C6.74707 22.0184 6.46513 22.0745 6.1804 22.0745C5.89566 22.0745 5.61372 22.0184 5.35069 21.9094C5.08766 21.8003 4.8487 21.6405 4.64748 21.4391C4.44603 21.2379 4.28622 20.9989 4.17718 20.7359C4.06815 20.4728 4.01203 20.1909 4.01203 19.9062C4.01203 19.6214 4.06815 19.3395 4.17718 19.0765C4.28622 18.8134 4.44603 18.5745 4.64748 18.3733L4.71248 18.3083C4.96223 18.0529 5.12976 17.7287 5.19348 17.3772C5.25721 17.0258 5.21419 16.6633 5.06998 16.3366C4.93265 16.0162 4.70463 15.7429 4.41398 15.5504C4.12334 15.3579 3.78275 15.2546 3.43415 15.2533H3.24998C2.67534 15.2533 2.12424 15.025 1.71792 14.6186C1.31159 14.2123 1.08331 13.6612 1.08331 13.0866C1.08331 12.5119 1.31159 11.9609 1.71792 11.5545C2.12424 11.1482 2.67534 10.9199 3.24998 10.9199H3.34748C3.70606 10.9115 4.05382 10.7955 4.34555 10.5868C4.63729 10.3781 4.85951 10.0865 4.98331 9.74992C5.12752 9.42317 5.17054 9.06071 5.10682 8.70928C5.0431 8.35785 4.87556 8.03357 4.62581 7.77825L4.56081 7.71325C4.35936 7.51203 4.19955 7.27307 4.09052 7.01004C3.98148 6.74701 3.92536 6.46507 3.92536 6.18034C3.92536 5.8956 3.98148 5.61366 4.09052 5.35063C4.19955 5.0876 4.35936 4.84864 4.56081 4.64742C4.76204 4.44597 5.001 4.28616 5.26403 4.17712C5.52706 4.06809 5.809 4.01196 6.09373 4.01196C6.37846 4.01196 6.6604 4.06809 6.92343 4.17712C7.18646 4.28616 7.42542 4.44597 7.62665 4.64742L7.69165 4.71242C7.94697 4.96217 8.27125 5.1297 8.62268 5.19342C8.9741 5.25714 9.33656 5.21413 9.66331 5.06992H9.74998C10.0704 4.93259 10.3437 4.70457 10.5361 4.41392C10.7286 4.12328 10.8319 3.78269 10.8333 3.43409V3.24992C10.8333 2.67528 11.0616 2.12418 11.4679 1.71785C11.8742 1.31153 12.4253 1.08325 13 1.08325C13.5746 1.08325 14.1257 1.31153 14.532 1.71785C14.9384 2.12418 15.1666 2.67528 15.1666 3.24992V3.34742C15.168 3.69602 15.2713 4.03661 15.4638 4.32726C15.6563 4.6179 15.9296 4.84593 16.25 4.98325C16.5767 5.12746 16.9392 5.17048 17.2906 5.10676C17.642 5.04304 17.9663 4.8755 18.2216 4.62575L18.2866 4.56075C18.4879 4.3593 18.7268 4.19949 18.9899 4.09046C19.2529 3.98142 19.5348 3.9253 19.8196 3.9253C20.1043 3.9253 20.3862 3.98142 20.6493 4.09046C20.9123 4.19949 21.1513 4.3593 21.3525 4.56075C21.5539 4.76198 21.7137 5.00094 21.8228 5.26396C21.9318 5.52699 21.9879 5.80894 21.9879 6.09367C21.9879 6.3784 21.9318 6.66034 21.8228 6.92337C21.7137 7.1864 21.5539 7.42536 21.3525 7.62659L21.2875 7.69159C21.0377 7.9469 20.8702 8.27119 20.8065 8.62261C20.7428 8.97404 20.7858 9.3365 20.93 9.66325V9.74992C21.0673 10.0703 21.2953 10.3436 21.586 10.5361C21.8766 10.7286 22.2172 10.8319 22.5658 10.8333H22.75C23.3246 10.8333 23.8757 11.0615 24.282 11.4679C24.6884 11.8742 24.9166 12.4253 24.9166 12.9999C24.9166 13.5746 24.6884 14.1257 24.282 14.532C23.8757 14.9383 23.3246 15.1666 22.75 15.1666H22.6525C22.3039 15.168 21.9633 15.2713 21.6726 15.4638C21.382 15.6562 21.154 15.9295 21.0166 16.2499Z" stroke="#63FE67" stroke-width="3" stroke-linecap="round" stroke-linejoin="round"/>
</g>
<defs>
<clipPath id="clip0_67_306">
<rect width="26" height="26" fill="white"/>
</clipPath>
</defs>
</svg>
