<svg width="194" height="45" viewBox="0 0 194 45" fill="none" xmlns="http://www.w3.org/2000/svg">
<path d="M0 26.0347C0 11.8863 11.4695 0.416748 25.6179 0.416748H114.639V15.2155C114.639 29.3639 103.17 40.8334 89.0211 40.8334H0V26.0347Z" fill="#959595"/>
<g filter="url(#filter0_d_67_355)">
<path d="M21.4402 17.8634H31.8475L30.9188 22.6028H20.5115L21.4402 17.8634ZM20.1272 26.7016H31.8795L30.8548 31.6011H12.8902L17.3733 9.18537H34.9216L33.9289 14.0848H22.625L20.1272 26.7016ZM45.3569 32.0494C43.0726 32.0494 41.0766 31.6331 39.3687 30.8005C37.6822 29.9679 36.38 28.8151 35.462 27.3421C34.544 25.8477 34.085 24.1292 34.085 22.1865C34.085 20.2438 34.4266 18.4505 35.1097 16.8067C35.7929 15.1629 36.7536 13.7432 37.9918 12.5477C39.23 11.3309 40.703 10.3915 42.4109 9.72975C44.1401 9.06795 46.0507 8.73705 48.1429 8.73705C50.2137 8.73705 52.0496 9.09997 53.6507 9.82582C55.2519 10.5517 56.4474 11.5977 57.2372 12.964L52.658 16.6146C52.1457 15.7606 51.4732 15.1095 50.6406 14.6612C49.8294 14.2129 48.858 13.9887 47.7266 13.9887C46.6378 13.9887 45.6451 14.1809 44.7485 14.5651C43.8732 14.9494 43.1153 15.4938 42.4749 16.1983C41.8344 16.9028 41.3434 17.7354 41.0019 18.696C40.6603 19.6354 40.4895 20.6601 40.4895 21.7702C40.4895 22.7736 40.703 23.6595 41.13 24.428C41.5783 25.1752 42.208 25.7623 43.0193 26.1893C43.8519 26.5949 44.8339 26.7977 45.9653 26.7977C46.9687 26.7977 47.9294 26.5949 48.8474 26.1893C49.7867 25.7837 50.6513 25.1219 51.4412 24.2039L55.1878 27.8865C53.9283 29.4022 52.4766 30.4803 50.8328 31.1207C49.1889 31.7398 47.3637 32.0494 45.3569 32.0494ZM67.1204 32.0494C64.8148 32.0494 62.8294 31.6331 61.1642 30.8005C59.4991 29.9466 58.2182 28.7831 57.3215 27.3101C56.4249 25.837 55.9766 24.1292 55.9766 22.1865C55.9766 20.2224 56.3182 18.4292 57.0013 16.8067C57.6845 15.1629 58.6451 13.7432 59.8833 12.5477C61.1215 11.3309 62.5946 10.3915 64.3024 9.72975C66.0317 9.06795 67.921 8.73705 69.9704 8.73705C72.276 8.73705 74.2614 9.16402 75.9266 10.018C77.5918 10.8505 78.8727 12.0033 79.7693 13.4764C80.6659 14.9494 81.1142 16.6573 81.1142 18.6C81.1142 20.564 80.7726 22.3679 80.0895 24.0118C79.4064 25.6342 78.4457 27.0539 77.2075 28.2707C75.9693 29.4662 74.4856 30.3949 72.7564 31.0567C71.0485 31.7185 69.1699 32.0494 67.1204 32.0494ZM67.6648 26.7977C68.7749 26.7977 69.7569 26.5949 70.6109 26.1893C71.4861 25.7837 72.2227 25.2179 72.8204 24.4921C73.4395 23.7449 73.9092 22.9016 74.2294 21.9623C74.5496 21.023 74.7097 20.0303 74.7097 18.9842C74.7097 17.9809 74.4963 17.1056 74.0693 16.3584C73.6637 15.6112 73.0659 15.0348 72.276 14.6292C71.5075 14.2022 70.5575 13.9887 69.426 13.9887C68.3373 13.9887 67.3552 14.1915 66.48 14.5972C65.6047 15.0028 64.8575 15.5792 64.2384 16.3264C63.6406 17.0522 63.1817 17.8848 62.8614 18.8241C62.5412 19.7634 62.3811 20.7561 62.3811 21.8022C62.3811 22.7842 62.5839 23.6595 62.9895 24.428C63.4165 25.1752 64.0142 25.7623 64.7828 26.1893C65.5727 26.5949 66.5333 26.7977 67.6648 26.7977Z" fill="white"/>
</g>
<path d="M89.7251 22.3316C89.7251 10.2283 99.5367 0.416748 111.64 0.416748H194V18.9186C194 31.0218 184.188 40.8334 172.085 40.8334H89.7251V22.3316Z" fill="#0C8CE9"/>
<g filter="url(#filter1_d_67_355)">
<path d="M106.343 30.4585L109.328 15.5838H103.439L104.315 11.283H121.491L120.615 15.5838H114.752L111.766 30.4585H106.343ZM128.668 30.842C126.696 30.842 124.997 30.4859 123.573 29.7737C122.149 29.0432 121.053 28.0479 120.286 26.7878C119.519 25.5277 119.135 24.0667 119.135 22.4048C119.135 20.7247 119.427 19.1906 120.012 17.8027C120.596 16.3965 121.418 15.182 122.477 14.1594C123.537 13.1184 124.797 12.3149 126.258 11.7487C127.737 11.1826 129.353 10.8995 131.106 10.8995C133.079 10.8995 134.777 11.2648 136.201 11.9953C137.626 12.7075 138.722 13.6937 139.489 14.9538C140.256 16.2139 140.639 17.6749 140.639 19.3367C140.639 21.0169 140.347 22.56 139.763 23.9662C139.178 25.3542 138.356 26.5686 137.297 27.6096C136.238 28.6323 134.969 29.4267 133.489 29.9928C132.029 30.5589 130.421 30.842 128.668 30.842ZM129.134 26.3495C130.084 26.3495 130.924 26.176 131.654 25.829C132.403 25.482 133.033 24.9981 133.544 24.3771C134.074 23.738 134.476 23.0166 134.75 22.213C135.024 21.4095 135.16 20.5603 135.16 19.6654C135.16 18.8071 134.978 18.0584 134.613 17.4192C134.266 16.78 133.754 16.2869 133.079 15.9399C132.421 15.5747 131.608 15.3921 130.641 15.3921C129.709 15.3921 128.869 15.5656 128.12 15.9125C127.372 16.2595 126.732 16.7526 126.203 17.3918C125.691 18.0127 125.299 18.7249 125.025 19.5285C124.751 20.332 124.614 21.1812 124.614 22.0761C124.614 22.9161 124.787 23.6649 125.134 24.3223C125.5 24.9615 126.011 25.4637 126.669 25.829C127.344 26.176 128.166 26.3495 129.134 26.3495ZM149.726 30.842C147.808 30.842 146.201 30.4768 144.904 29.7463C143.626 28.9975 142.722 27.9566 142.192 26.6234C141.663 25.272 141.572 23.7014 141.919 21.9117L144.055 11.283H149.479L147.37 21.8295C147.224 22.5966 147.178 23.2631 147.233 23.8293C147.288 24.3954 147.443 24.8702 147.699 25.2537C147.973 25.6372 148.329 25.9203 148.767 26.1029C149.223 26.2673 149.762 26.3495 150.383 26.3495C151.132 26.3495 151.78 26.2034 152.328 25.9112C152.894 25.6007 153.36 25.1168 153.725 24.4593C154.109 23.7836 154.401 22.907 154.602 21.8295L156.711 11.283H162.053L159.889 22.1583C159.323 25.0072 158.19 27.1713 156.492 28.6505C154.794 30.1115 152.538 30.842 149.726 30.842ZM160.824 30.4585L164.659 11.283H172.849C175.315 11.283 177.214 11.8218 178.547 12.8992C179.899 13.9767 180.574 15.4742 180.574 17.3918C180.574 18.9989 180.182 20.4051 179.397 21.6104C178.63 22.7974 177.534 23.7197 176.109 24.3771C174.685 25.0346 173.005 25.3633 171.069 25.3633H164.851L167.727 23.0349L166.248 30.4585H160.824ZM172.849 30.4585L168.932 23.4731H174.548L178.52 30.4585H172.849ZM167.59 23.6649L165.7 21.1721H171.315C172.521 21.1721 173.452 20.889 174.11 20.3229C174.767 19.7568 175.096 18.9532 175.096 17.9123C175.096 17.1087 174.831 16.5152 174.301 16.1317C173.772 15.7482 173.032 15.5564 172.082 15.5564H166.85L169.754 12.9814L167.59 23.6649Z" fill="white"/>
</g>
<defs>
<filter id="filter0_d_67_355" x="6.48565" y="8.73706" width="81.033" height="36.1212" filterUnits="userSpaceOnUse" color-interpolation-filters="sRGB">
<feFlood flood-opacity="0" result="BackgroundImageFix"/>
<feColorMatrix in="SourceAlpha" type="matrix" values="0 0 0 0 0 0 0 0 0 0 0 0 0 0 0 0 0 0 127 0" result="hardAlpha"/>
<feOffset dy="6.40449"/>
<feGaussianBlur stdDeviation="3.20224"/>
<feComposite in2="hardAlpha" operator="out"/>
<feColorMatrix type="matrix" values="0 0 0 0 0 0 0 0 0 0 0 0 0 0 0 0 0 0 0.25 0"/>
<feBlend mode="normal" in2="BackgroundImageFix" result="effect1_dropShadow_67_355"/>
<feBlend mode="normal" in="SourceGraphic" in2="effect1_dropShadow_67_355" result="shape"/>
</filter>
<filter id="filter1_d_67_355" x="97.9601" y="10.8994" width="88.0931" height="30.9" filterUnits="userSpaceOnUse" color-interpolation-filters="sRGB">
<feFlood flood-opacity="0" result="BackgroundImageFix"/>
<feColorMatrix in="SourceAlpha" type="matrix" values="0 0 0 0 0 0 0 0 0 0 0 0 0 0 0 0 0 0 127 0" result="hardAlpha"/>
<feOffset dy="5.4787"/>
<feGaussianBlur stdDeviation="2.73935"/>
<feComposite in2="hardAlpha" operator="out"/>
<feColorMatrix type="matrix" values="0 0 0 0 0 0 0 0 0 0 0 0 0 0 0 0 0 0 0.25 0"/>
<feBlend mode="normal" in2="BackgroundImageFix" result="effect1_dropShadow_67_355"/>
<feBlend mode="normal" in="SourceGraphic" in2="effect1_dropShadow_67_355" result="shape"/>
</filter>
</defs>
</svg>
