<svg width="46" height="20" viewBox="0 0 46 20" fill="none" xmlns="http://www.w3.org/2000/svg">
<path d="M0 10.4615C0 4.68379 4.68379 0 10.4615 0H46V7.53846C46 13.3162 41.3162 18 35.5385 18H0V10.4615Z" fill="#0C8CE9"/>
<g filter="url(#filter0_d_67_334)">
<path d="M6.20345 14.0195L7.62884 6.91876H4.8173L5.23576 4.86568H13.435L13.0165 6.91876H10.2181L8.79268 14.0195H6.20345ZM16.8611 14.2026C15.9196 14.2026 15.1088 14.0326 14.4288 13.6926C13.7488 13.3439 13.2258 12.8688 12.8596 12.2672C12.4935 11.6657 12.3104 10.9682 12.3104 10.1749C12.3104 9.37286 12.4499 8.64056 12.7288 7.97799C13.0078 7.30671 13.4001 6.72697 13.9058 6.23876C14.4114 5.74184 15.0129 5.35825 15.7104 5.08799C16.4165 4.81774 17.1881 4.68261 18.025 4.68261C18.9665 4.68261 19.7773 4.85697 20.4573 5.20568C21.1373 5.54568 21.6604 6.01645 22.0265 6.61799C22.3927 7.21953 22.5758 7.91697 22.5758 8.7103C22.5758 9.51235 22.4363 10.249 22.1573 10.9203C21.8783 11.5829 21.486 12.1626 20.9804 12.6595C20.4747 13.1477 19.8688 13.527 19.1627 13.7972C18.4652 14.0675 17.6981 14.2026 16.8611 14.2026ZM17.0835 12.058C17.5368 12.058 17.9378 11.9752 18.2865 11.8095C18.644 11.6439 18.9447 11.4129 19.1888 11.1165C19.4417 10.8113 19.6335 10.467 19.7642 10.0834C19.895 9.69979 19.9604 9.2944 19.9604 8.86722C19.9604 8.45748 19.8732 8.10004 19.6988 7.79492C19.5332 7.48979 19.2891 7.2544 18.9665 7.08876C18.6527 6.9144 18.2647 6.82722 17.8027 6.82722C17.3581 6.82722 16.957 6.91004 16.5996 7.07568C16.2422 7.24133 15.937 7.47671 15.6842 7.78184C15.4401 8.07825 15.2527 8.41825 15.1219 8.80184C14.9911 9.18543 14.9258 9.59081 14.9258 10.018C14.9258 10.419 15.0086 10.7765 15.1742 11.0903C15.3486 11.3954 15.5927 11.6352 15.9065 11.8095C16.2291 11.9752 16.6214 12.058 17.0835 12.058ZM26.9134 14.2026C25.998 14.2026 25.2309 14.0282 24.6119 13.6795C24.0016 13.3221 23.5701 12.8252 23.3173 12.1888C23.0644 11.5436 23.0209 10.7939 23.1865 9.93953L24.2065 4.86568H26.7957L25.7888 9.9003C25.7191 10.2665 25.6973 10.5847 25.7234 10.8549C25.7496 11.1252 25.8237 11.3518 25.9457 11.5349C26.0765 11.718 26.2465 11.8531 26.4557 11.9403C26.6737 12.0188 26.9309 12.058 27.2273 12.058C27.5847 12.058 27.8942 11.9882 28.1557 11.8488C28.426 11.7006 28.6483 11.4695 28.8226 11.1557C29.0057 10.8331 29.1452 10.4147 29.2411 9.9003L30.248 4.86568H32.798L31.765 10.0572C31.4947 11.4172 30.9542 12.4503 30.1434 13.1565C29.3326 13.8539 28.256 14.2026 26.9134 14.2026ZM32.2113 14.0195L34.0421 4.86568H37.9521C39.129 4.86568 40.0357 5.12286 40.6721 5.63722C41.3172 6.15158 41.6398 6.86645 41.6398 7.78184C41.6398 8.54902 41.4523 9.2203 41.0775 9.79568C40.7113 10.3624 40.1882 10.8026 39.5082 11.1165C38.8282 11.4303 38.0262 11.5872 37.1021 11.5872H34.1336L35.5067 10.4757L34.8005 14.0195H32.2113ZM37.9521 14.0195L36.0821 10.6849H38.7628L40.659 14.0195H37.9521ZM35.4413 10.7765L34.539 9.58645H37.2198C37.7952 9.58645 38.2398 9.45133 38.5536 9.18107C38.8675 8.91081 39.0244 8.52722 39.0244 8.0303C39.0244 7.64671 38.898 7.36338 38.6452 7.1803C38.3923 6.99722 38.0393 6.90568 37.5859 6.90568H35.0882L36.4744 5.67645L35.4413 10.7765Z" fill="white"/>
</g>
<defs>
<filter id="filter0_d_67_334" x="2.20188" y="4.68262" width="42.0533" height="14.7508" filterUnits="userSpaceOnUse" color-interpolation-filters="sRGB">
<feFlood flood-opacity="0" result="BackgroundImageFix"/>
<feColorMatrix in="SourceAlpha" type="matrix" values="0 0 0 0 0 0 0 0 0 0 0 0 0 0 0 0 0 0 127 0" result="hardAlpha"/>
<feOffset dy="2.61538"/>
<feGaussianBlur stdDeviation="1.30769"/>
<feComposite in2="hardAlpha" operator="out"/>
<feColorMatrix type="matrix" values="0 0 0 0 0 0 0 0 0 0 0 0 0 0 0 0 0 0 0.25 0"/>
<feBlend mode="normal" in2="BackgroundImageFix" result="effect1_dropShadow_67_334"/>
<feBlend mode="normal" in="SourceGraphic" in2="effect1_dropShadow_67_334" result="shape"/>
</filter>
</defs>
</svg>
