<svg width="130" height="53" viewBox="0 0 130 53" fill="none" xmlns="http://www.w3.org/2000/svg">
<path d="M0.149902 27.6111C0.149902 12.6381 12.288 0.5 27.261 0.5H129.15V23.3889C129.15 38.3619 117.012 50.5 102.039 50.5H0.149902V27.6111Z" fill="#0C8CE9"/>
<g filter="url(#filter0_d_35_200)">
<path d="M20.7077 38.5L24.4016 20.0983H17.1155L18.1999 14.7778H39.4482L38.3638 20.0983H31.1116L27.4177 38.5H20.7077ZM48.3271 38.9744C45.8871 38.9744 43.786 38.5339 42.0238 37.6528C40.2616 36.7491 38.906 35.5178 37.9571 33.9589C37.0082 32.4 36.5338 30.5926 36.5338 28.5367C36.5338 26.4581 36.8953 24.5604 37.6182 22.8433C38.3412 21.1037 39.3579 19.6013 40.6682 18.3361C41.9786 17.0483 43.5375 16.0543 45.3449 15.3539C47.1749 14.6535 49.1743 14.3033 51.3432 14.3033C53.7832 14.3033 55.8843 14.7552 57.6466 15.6589C59.4088 16.54 60.7643 17.76 61.7132 19.3189C62.6621 20.8778 63.1366 22.6852 63.1366 24.7411C63.1366 26.8196 62.7751 28.7287 62.0521 30.4683C61.3292 32.1854 60.3125 33.6878 59.0021 34.9756C57.6918 36.2407 56.1216 37.2235 54.2916 37.9239C52.4842 38.6243 50.496 38.9744 48.3271 38.9744ZM48.9032 33.4167C50.0781 33.4167 51.1173 33.202 52.021 32.7728C52.9473 32.3435 53.7268 31.7448 54.3593 30.9767C55.0145 30.1859 55.5116 29.2935 55.8505 28.2994C56.1893 27.3054 56.3588 26.2548 56.3588 25.1478C56.3588 24.0859 56.1329 23.1596 55.681 22.3689C55.2518 21.5781 54.6192 20.9681 53.7832 20.5389C52.9699 20.087 51.9645 19.8611 50.7671 19.8611C49.6149 19.8611 48.5756 20.0757 47.6493 20.505C46.7231 20.9343 45.9323 21.5443 45.2771 22.335C44.6445 23.1031 44.1588 23.9843 43.8199 24.9783C43.481 25.9724 43.3116 27.023 43.3116 28.13C43.3116 29.1693 43.5262 30.0956 43.9555 30.9089C44.4073 31.6996 45.0399 32.3209 45.8532 32.7728C46.6892 33.202 47.7058 33.4167 48.9032 33.4167ZM74.3776 38.9744C72.0054 38.9744 70.0172 38.5226 68.4132 37.6189C66.8317 36.6926 65.7134 35.4048 65.0582 33.7556C64.403 32.0837 64.29 30.1407 64.7193 27.9267L67.3626 14.7778H74.0726L71.4632 27.825C71.2824 28.7739 71.226 29.5985 71.2937 30.2989C71.3615 30.9993 71.5535 31.5867 71.8698 32.0611C72.2087 32.5356 72.6493 32.8857 73.1915 33.1117C73.7563 33.315 74.4228 33.4167 75.191 33.4167C76.1172 33.4167 76.9193 33.2359 77.5971 32.8744C78.2974 32.4904 78.8735 31.8917 79.3254 31.0783C79.7998 30.2424 80.1613 29.158 80.4098 27.825L83.0193 14.7778H89.6276L86.9504 28.2317C86.25 31.7561 84.8493 34.4333 82.7482 36.2633C80.6471 38.0707 77.8569 38.9744 74.3776 38.9744ZM88.1071 38.5L92.8516 14.7778H102.984C106.034 14.7778 108.384 15.4443 110.033 16.7772C111.705 18.1102 112.541 19.9628 112.541 22.335C112.541 24.3231 112.055 26.0628 111.084 27.5539C110.135 29.0224 108.779 30.1633 107.017 30.9767C105.255 31.79 103.176 32.1967 100.782 32.1967H93.0888L96.6471 29.3161L94.8171 38.5H88.1071ZM102.984 38.5L98.1382 29.8583H105.085L109.999 38.5H102.984ZM96.4777 30.0956L94.1393 27.0117H101.087C102.578 27.0117 103.73 26.6615 104.543 25.9611C105.357 25.2607 105.763 24.2667 105.763 22.9789C105.763 21.9848 105.436 21.2506 104.78 20.7761C104.125 20.3017 103.21 20.0644 102.035 20.0644H95.5627L99.1549 16.8789L96.4777 30.0956Z" fill="white"/>
</g>
<defs>
<filter id="filter0_d_35_200" x="10.3377" y="14.3033" width="108.981" height="38.2267" filterUnits="userSpaceOnUse" color-interpolation-filters="sRGB">
<feFlood flood-opacity="0" result="BackgroundImageFix"/>
<feColorMatrix in="SourceAlpha" type="matrix" values="0 0 0 0 0 0 0 0 0 0 0 0 0 0 0 0 0 0 127 0" result="hardAlpha"/>
<feOffset dy="6.77778"/>
<feGaussianBlur stdDeviation="3.38889"/>
<feComposite in2="hardAlpha" operator="out"/>
<feColorMatrix type="matrix" values="0 0 0 0 0 0 0 0 0 0 0 0 0 0 0 0 0 0 0.25 0"/>
<feBlend mode="normal" in2="BackgroundImageFix" result="effect1_dropShadow_35_200"/>
<feBlend mode="normal" in="SourceGraphic" in2="effect1_dropShadow_35_200" result="shape"/>
</filter>
</defs>
</svg>
